# xmcd CD database file
#
# Track frame offsets:
#	150
#	5173
#	21277
#	23766
#	26121
#	28392
#	30966
#	33504
#	37415
#	39574
#	41926
#	47961
#	48709
#	50035
#	50715
#	52653
#	54642
#	56495
#	59488
#	61732
#	63768
#	64788
#	65500
#	66503
#	67319
#	68333
#	69183
#	78569
#
# Disc length: 1078 seconds
#
# Revision: 0
# Processed by: cddbd v1.5.2PL0 Copyright (c) Steve Scherf et al.
# Submitted via: CDex 1.70beta2
#
DISCID=aa04341c
DTITLE=Sid Jacobs - The Changes - Guide Tones Jazs Chords
DYEAR=2004
DGENRE=Jazz
TTITLE0=Greetings and Tuning
TTITLE1=The Changes Rap
TTITLE2=First Blues Line In 
TTITLE3=One Note Blues
TTITLE4=More Note Blues
TTITLE5=3&7 on 4&5 Blues
TTITLE6=Frankie and Johnnie
TTITLE7=Bird Blues
TTITLE8=Bird Blues Line
TTITLE9=Bird Blues With Comp
TTITLE10=Voicings 
TTITLE11=Mi7b5
TTITLE12=Familiar Five-Note Chord Shape
TTITLE13=Phrase With Chormatic Diminished Passing Chords
TTITLE14=Gm7 Rootless Voicings
TTITLE15=Same Thing With The C7th Shape
TTITLE16=Same Thing With The Fmaj Shape
TTITLE17=Altered Scale Over Dominant Shapes
TTITLE18=Altered Scale Over Dominiant Shapes Faster
TTITLE19=Altered Scale Over Dominant Shapes Even Faster
TTITLE20=Gmaj7 With Arpog
TTITLE21=Apog With Turnaround
TTITLE22=Triads With Approach Notes
TTITLE23=Triads With Approach Notes
TTITLE24=Block Chord Melodies
TTITLE25=Block Chords
TTITLE26=Big Chords and Smaller Melodies
TTITLE27=Closing Thoughts
EXTD=YEAR: 2004
EXTT0=
EXTT1=
EXTT2=
EXTT3=
EXTT4=
EXTT5=
EXTT6=
EXTT7=
EXTT8=
EXTT9=
EXTT10=
EXTT11=
EXTT12=
EXTT13=
EXTT14=
EXTT15=
EXTT16=
EXTT17=
EXTT18=
EXTT19=
EXTT20=
EXTT21=
EXTT22=
EXTT23=
EXTT24=
EXTT25=
EXTT26=
EXTT27=
PLAYORDER=
